<?xml version="1.0" encoding="UTF-8" standalone="no"?>
<!DOCTYPE svg PUBLIC "-//W3C//DTD SVG 1.1//EN" "http://www.w3.org/Graphics/SVG/1.1/DTD/svg11.dtd">
<!-- Created with Vectornator (http://vectornator.io/) -->
<svg height="100%" stroke-miterlimit="10" style="fill-rule:nonzero;clip-rule:evenodd;stroke-linecap:round;stroke-linejoin:round;" version="1.1" viewBox="0 0 800 200" width="80%" xml:space="preserve" xmlns="http://www.w3.org/2000/svg" xmlns:vectornator="http://vectornator.io" xmlns:xlink="http://www.w3.org/1999/xlink">
<defs/>
<g id="Layer-1" vectornator:layerName="Layer 1">
<g fill="#000000" opacity="1" stroke="none" vectornator:layerName="Text 1">
<path d="M66.7812 295.5L66.7812 238.438L67.4688 238.438L105.031 295.5L119.031 295.5L119.031 210.188L103.031 210.188L103.031 266.938L102.344 266.938L64.9688 210.188L50.8438 210.188L50.8438 295.5L66.7812 295.5Z"/>
<path d="M149.344 295.5L156.031 273.562L184.531 273.562L191.219 295.5L209.156 295.5L180.656 210.188L160.906 210.188L132.281 295.5L149.344 295.5ZM170.719 226.5L181.156 261L159.531 261L169.969 226.5L170.719 226.5Z"/>
<path d="M250.406 295.5L250.406 224.312L274.656 224.312L274.656 210.188L209.281 210.188L209.281 224.312L233.469 224.312L233.469 295.5L250.406 295.5Z"/>
<path d="M304.781 295.5L304.781 210.188L287.906 210.188L287.906 295.5L304.781 295.5Z"/>
<path d="M395.781 258.375L395.781 247.438C395.781 223.312 382.094 208.562 359.281 208.562C336.469 208.562 322.719 223.188 322.719 247.438L322.719 258.375C322.719 282.438 336.469 297.125 359.281 297.125C382.094 297.125 395.781 282.438 395.781 258.375ZM378.656 247.312L378.656 258.438C378.656 274.875 370.531 283.062 359.281 283.062C347.969 283.062 339.906 274.875 339.906 258.438L339.906 247.312C339.906 230.875 347.969 222.625 359.281 222.625C370.531 222.625 378.656 230.875 378.656 247.312Z"/>
<path d="M429.656 295.5L429.656 238.438L430.344 238.438L467.906 295.5L481.906 295.5L481.906 210.188L465.906 210.188L465.906 266.938L465.219 266.938L427.844 210.188L413.719 210.188L413.719 295.5L429.656 295.5Z"/>
<path d="M512.219 295.5L518.906 273.562L547.406 273.562L554.094 295.5L572.031 295.5L543.531 210.188L523.781 210.188L495.156 295.5L512.219 295.5ZM533.594 226.5L544.031 261L522.406 261L532.844 226.5L533.594 226.5Z"/>
<path d="M638.344 281.125L602.156 281.125L602.156 210.188L585.281 210.188L585.281 295.5L638.344 295.5L638.344 281.125Z"/>
<path d="M750.281 295.5L750.281 210.188L733.406 210.188L733.406 244.875L697.531 244.875L697.531 210.188L680.656 210.188L680.656 295.5L697.531 295.5L697.531 258.938L733.406 258.938L733.406 295.5L750.281 295.5Z"/>
<path d="M826.594 281.688L788.406 281.688L788.406 258.812L824.344 258.812L824.344 245.875L788.406 245.875L788.406 224L826.594 224L826.594 210.188L771.656 210.188L771.656 295.5L826.594 295.5L826.594 281.688Z"/>
<path d="M854.281 295.5L860.969 273.562L889.469 273.562L896.156 295.5L914.094 295.5L885.594 210.188L865.844 210.188L837.219 295.5L854.281 295.5ZM875.656 226.5L886.094 261L864.469 261L874.906 226.5L875.656 226.5Z"/>
<path d="M980.406 281.125L944.219 281.125L944.219 210.188L927.344 210.188L927.344 295.5L980.406 295.5L980.406 281.125Z"/>
<path d="M1021.09 295.5L1021.09 224.312L1045.34 224.312L1045.34 210.188L979.969 210.188L979.969 224.312L1004.16 224.312L1004.16 295.5L1021.09 295.5Z"/>
<path d="M1128.22 295.5L1128.22 210.188L1111.34 210.188L1111.34 244.875L1075.47 244.875L1075.47 210.188L1058.59 210.188L1058.59 295.5L1075.47 295.5L1075.47 258.938L1111.34 258.938L1111.34 295.5L1128.22 295.5Z"/>
<path d="M1163.34 247.75C1163.34 231.938 1170.28 222.812 1182.09 222.812C1191.78 222.812 1198.28 229.5 1198.97 238.562L1215.28 238.562L1215.28 237C1214.53 220.125 1200.72 208.562 1181.97 208.562C1159.16 208.562 1146.16 223.5 1146.16 247.688L1146.16 258.312C1146.16 282.5 1159.03 297.125 1181.97 297.125C1200.66 297.125 1214.47 285.875 1215.28 269.562L1215.28 267.938L1198.97 267.938C1198.28 276.688 1191.91 282.875 1182.09 282.875C1170.16 282.875 1163.34 274.062 1163.34 258.312L1163.34 247.75Z"/>
<path d="M1241.78 295.5L1248.47 273.562L1276.97 273.562L1283.66 295.5L1301.59 295.5L1273.09 210.188L1253.34 210.188L1224.72 295.5L1241.78 295.5ZM1263.16 226.5L1273.59 261L1251.97 261L1262.41 226.5L1263.16 226.5Z"/>
<path d="M1348.91 210.188L1314.84 210.188L1314.84 295.5L1331.53 295.5L1331.53 263.688L1346.66 263.688L1361.59 295.5L1380.47 295.5L1363.34 261.125C1371.09 258.125 1378.84 249.688 1378.84 237.188C1378.84 220.875 1367.84 210.188 1348.91 210.188ZM1331.53 251L1331.53 223.438L1346.47 223.438C1355.41 223.438 1361.41 228.375 1361.41 237.5C1361.41 246.5 1355.59 251 1346.22 251L1331.53 251Z"/>
<path d="M1451.78 281.688L1413.59 281.688L1413.59 258.812L1449.53 258.812L1449.53 245.875L1413.59 245.875L1413.59 224L1451.78 224L1451.78 210.188L1396.84 210.188L1396.84 295.5L1451.78 295.5L1451.78 281.688Z"/>
</g>
</g>
</svg>
